<?xml version="1.0" standalone="no"?>
<!DOCTYPE svg PUBLIC "-//W3C//DTD SVG 20010904//EN"
 "http://www.w3.org/TR/2001/REC-SVG-20010904/DTD/svg10.dtd">
<svg version="1.0" xmlns="http://www.w3.org/2000/svg"
 width="512.000000pt" height="512.000000pt" viewBox="0 0 512.000000 512.000000"
 preserveAspectRatio="xMidYMid meet">
<metadata>
Created by potrace 1.15, written by Peter Selinger 2001-2017
</metadata>
<g transform="translate(0.000000,512.000000) scale(0.100000,-0.100000)"
fill="#000000" stroke="none">
<path d="M2460 4339 c-418 -28 -825 -214 -1125 -514 -120 -119 -245 -286 -309
-413 l-25 -50 302 -234 301 -234 31 76 c170 422 623 700 1060 651 225 -25 353
-81 563 -245 l24 -19 254 254 c140 140 254 259 254 265 0 5 -30 35 -66 65
-272 225 -625 373 -944 394 -175 11 -208 12 -320 4z"/>
<path d="M2590 2540 l0 -350 479 0 479 0 -15 -57 c-41 -164 -155 -331 -301
-444 l-34 -26 293 -228 293 -228 72 77 c228 244 367 539 431 911 21 128 24
480 4 608 l-13 87 -844 0 -844 0 0 -350z"/>
</g>
</svg>
